<svg xmlns="http://www.w3.org/2000/svg" viewBox="0 0 204.26 166.49"><defs><style>.cls-1{fill:#699c17;}</style></defs><title>icon</title><g id="Layer_2" data-name="Layer 2"><g id="Layer_1-2" data-name="Layer 1"><polygon class="cls-1" points="101.71 129.73 37.32 94.84 37.32 131.63 101.71 166.49 166.1 131.63 166.1 94.84 101.71 129.73"/><path class="cls-1" d="M102.13,0,0,55.82l102.13,55.51L184.6,66.51V130h19.66V55.82ZM97.59,82.78a32.34,32.34,0,0,1-7.85,0C73.23,81.25,68.45,69.61,67.17,61.37a24.83,24.83,0,0,1-.35-8.24,25.79,25.79,0,0,1,5.41-.26c8.71.27,24.91,3.91,25.37,27.23C97.6,80.12,97.61,81.89,97.59,82.78Zm3.28-16.38h0s-23.68-19.25,0-42.93h0C124.55,47.15,100.87,66.4,100.87,66.4Zm35.3-5c-1.28,8.24-6.06,19.88-22.57,21.41a32.34,32.34,0,0,1-7.85,0c0-.89,0-2.66,0-2.68.46-23.32,16.66-27,25.37-27.23a25.79,25.79,0,0,1,5.41.26A24.83,24.83,0,0,1,136.17,61.37Z"/></g></g></svg>